<?xml version="1.0" encoding="utf-8"?>
<!-- Generator: Adobe Illustrator 21.1.0, SVG Export Plug-In . SVG Version: 6.00 Build 0)  -->
<svg version="1.1" id="Layer_1" xmlns="http://www.w3.org/2000/svg" xmlns:xlink="http://www.w3.org/1999/xlink" x="0px" y="0px"
	 viewBox="0 0 500 200" style="enable-background:new 0 0 500 200;" xml:space="preserve">
<g>
	<path d="M104.3,155.6L89,139.1c-6.8,3.7-14.3,6-22.5,6c-12.7,0-24.8-5.2-33.7-15c-9-9.5-13.8-21.8-13.8-35.3
		c0-13.2,4.7-25.5,13.8-35.2c9-9.2,21-14.5,33.7-14.5c13,0,25,5.3,34,14.5c8.8,9.7,14,22,14,35.2c0,13.3-5,25.5-13.5,34.8l14.2,15.7
		L104.3,155.6z M78.5,127.6l-1.5-1.5l11.3-10.2l2.5,2.7c5.3-6.3,8.8-14.5,8.8-23.8c0-19.2-15-34.8-33-34.8
		c-18,0-32.5,15.5-32.5,34.8c0,19.5,14.5,35.3,32.5,35.3C71,130.1,74.8,129.1,78.5,127.6z"/>
	<path d="M236.2,46.3v60.3l-0.3,4.5c-1.5,19-17.5,34-36.7,34c-20.5,0-37-16.5-37-37V46.3h15.3v64.8c1.5,10.7,10.7,19,21.8,19
		c12,0,22-9.8,22-22V46.3H236.2z"/>
	<path d="M361.9,46.3v60.3l-0.3,4.5c-1.5,19-17.5,34-36.7,34c-20.5,0-37-16.5-37-37V46.3h15.3v64.8c1.5,10.7,10.7,19,21.8,19
		c12,0,22-9.8,22-22V46.3H361.9z"/>
	<path d="M480.9,116.1c0,14.5-10.5,26.8-24,28.5l-44.3,0.3V46.1l43.3,0.3c13.8,0.8,23.5,13.3,23.5,27.3c0,8-3.2,15.3-8.5,20
		c0.8,0.8,1.5,1.5,2.3,2.5C478.1,101.6,480.9,108.6,480.9,116.1z M427.6,86.8l24.5,0.3c6.8,0,12.3-6.5,12.3-13.5
		c0-7-5.5-12.5-12.3-12.5h-24.5V86.8z M465.9,116.1c0-7.5-5.3-14.2-12.3-14.2h-26v28h26C460.6,129.8,465.9,123.6,465.9,116.1z
		 M451.1,144.8h4.2H451.1z"/>
</g>
</svg>
